<svg xmlns="http://www.w3.org/2000/svg" width="209.443" height="300"><path fill="#010101" d="M115.942 188.19l8.561 2.25.892-3.44-8.547-2.236.466-1.806c.519-1.985 1.329-2.286 3.118-1.817l6.888 1.803.914-3.487-7.096-1.856c-3.286-.864-6.343-.089-7.422 3.999l-3.136 11.991c-.236.874.212 1.537 1.021 1.752l2.311.602 2.03-7.755zm-18.305-9.131l-.717-3.534-11.815 2.408c-.817.158-1.315.799-1.132 1.699l2.48 12.145c.842 4.136 3.845 5.078 7.174 4.397l7.196-1.462-.724-3.526-6.974 1.419c-1.806.358-2.605.021-3.014-1.996l-.365-1.817 8.679-1.763-.706-3.48-8.687 1.759-.874-4.322 9.479-1.927zm-28.816 24.35c-1.379-.15-2.236-.731-3.54-2.336l-6.691-8.224-2.964 2.412 7.307 8.991c1.541 1.874 3.264 2.874 5.307 3.068 2.297.211 4.34-.466 6.368-2.111 2.018-1.649 3.11-3.505 3.369-5.798.233-2.039-.394-3.935-1.921-5.82l-7.307-8.984L65.782 187l6.68 8.231c1.315 1.605 1.695 2.566 1.562 3.938-.097 1.132-.774 2.261-1.806 3.093-1.024.846-2.282 1.283-3.397 1.147m77.71-13.84c.881.688.82 1.39.598 2.071l-5.551 19.294-3.154-2.895 1.068-3.716-3.705-2.853 3.215-2.075 1.559 1.208 1.921-6.608-12.12 7.859-3.558-1.992 16.818-10.919c.613-.391 1.261-.624 2.154.057l.755.569zm-74.309 27.253l-2.258-1.982c8.325-9.489 20.545-15.485 34.155-15.485 13.618 0 25.831 5.995 34.151 15.485l-2.247 1.982c-7.773-8.866-19.176-14.467-31.905-14.467-12.713.001-24.123 5.602-31.896 14.467m-21.057-23.766l-2.143-2.093c13.987-14.32 33.503-23.2 55.098-23.2 21.598 0 41.122 8.88 55.105 23.2l-2.143 2.093c-13.438-13.757-32.202-22.304-52.962-22.304-20.757 0-39.517 8.547-52.955 22.304M114.274 290.819h7.54v1.745c-1.222 1.362-3.175 2.408-5.587 2.408-4.222 0-7.4-2.476-7.4-7.608s3.458-7.611 6.773-7.611c3.039 0 4.992 1.466 5.795 4.189l5.343-1.57c-1.258-4.573-4.82-7.647-11.066-7.647-6.705 0-12.428 4.82-12.428 12.639 0 7.819 5.655 12.636 12.496 12.636 5.307 0 8.586-2.093 11.277-5.375v-8.17h-12.743v4.364zM63.377 289.765h10.396v-5.024H63.377v-4.569h11.302v-5.024H57.793v24.418h17.166v-5.024H63.377zM43.588 275.148h-5.583v24.419H55.17v-5.024H43.588zM87.449 275.151l-9.908 24.415h6.314l1.781-4.637h9.557l1.778 4.637h6.314l-9.905-24.415h-5.931zm.104 14.753l2.863-7.5 2.86 7.5h-5.723zM144.678 289.66c0 3.279-1.677 5.304-4.745 5.304-3.071 0-4.745-2.025-4.745-5.304v-14.51h-5.58v14.822c0 6.805 4.709 10.013 10.324 10.013s10.328-3.243 10.328-10.013V275.15h-5.583v14.51zM159.007 294.541v-4.777h10.396v-5.024h-10.396v-4.569h11.303v-5.024h-16.886v24.418h17.165v-5.024zM55.343 248.083c0 5.125-2.616 8.285-7.411 8.285s-7.411-3.161-7.411-8.285v-22.67h-8.719v23.161c0 10.629 7.357 15.639 16.13 15.639s16.13-5.067 16.13-15.639v-23.161h-8.719v22.67zM8.719 248.247h16.237v-7.848H8.719v-7.139h17.656v-7.848H0v38.148h26.812v-7.849H8.719zM193.965 225.412h-9.263l-15.478 38.147h9.866l2.781-7.246H196.8l2.781 7.246h9.862l-15.478-38.147zm-9.098 23.053l4.469-11.718 4.469 11.718h-8.938zM173.08 238.057c0-8.285-6.16-12.643-13.682-12.643h-14.929v38.147h8.719V250.7h6.21c7.521 0 13.682-4.358 13.682-12.643m-14.116 4.795h-5.777v-9.59h5.777c3.87 0 5.397 2.014 5.397 4.795 0 2.777-1.527 4.795-5.397 4.795M98.397 237.622c0-7.468-6.049-12.209-13.786-12.209H69.459v38.147h8.719v-13.732h4.687l7.63 13.732h9.808l-8.5-15.313c3.87-2.178 6.594-5.615 6.594-10.625m-13.679 4.358h-6.54v-8.719h6.54c3.598 0 4.96 1.853 4.96 4.361 0 2.505-1.362 4.358-4.96 4.358M120.964 224.54c-11.22 0-18.459 7.572-18.459 19.932 0 12.363 7.239 19.932 18.459 19.932 11.216 0 18.459-7.569 18.459-19.932 0-12.36-7.242-19.932-18.459-19.932m0 32.023c-5.447 0-9.747-3.92-9.747-12.091 0-8.167 4.3-12.087 9.747-12.087s9.747 3.92 9.747 12.087c.001 8.17-4.3 12.091-9.747 12.091M136.846 14.904l-.007-.007a.253.253 0 00.036-.129.306.306 0 00-.143-.251l.007-.003L114.112 1.57l-.003.007c-.047-.021-.09-.043-.147-.043a.304.304 0 00-.301.258h-.007c-1.168 4.927-11.715 52.89 5.257 110.113-6.089-37.531 8.575-78.674 17.935-97.001M109.811 149.901v.004a69.984 69.984 0 0014.66-2.63v-.007a.31.31 0 00.186-.28.242.242 0 00-.032-.129l.014-.007c-6.074-6.483-15.413-19.825-21.684-31.901 3.175 12.984 5.956 27.239 6.583 34.707a.304.304 0 00.273.243"/><path fill="#707070" d="M129.843 145.526C98.161 94.495 103.174 22.379 106.74.322h-.014c0-.007.007-.007.007-.014a.306.306 0 00-.308-.308.2.2 0 00-.093.021l-.004-.007c-4.039 1.62-32.052 12.872-35.04 14.076a.307.307 0 00-.219.29c0 .025.011.047.014.068h-.003c5.655 25.885 20.168 87.179 58.763 131.078M86.572 147.369h.004c-.004.022-.014.043-.014.065a.33.33 0 00.197.29 70.245 70.245 0 0017.083 2.347.309.309 0 00.294-.287h.004c-.753-12.406-3.616-37.961-14.148-60.577 3.421 22.943-.331 46.827-3.42 58.162"/><path fill="#F08901" d="M78.371 144.903a.3.3 0 00.262-.161l.014.011c.097-.448.294-1.311.391-1.727l-.014-.011a.119.119 0 00.014-.054.301.301 0 00-.222-.287l.004-.011c-22.838-9.783-37.997-36.18-37.997-62.548 0-20.602 8.823-43.071 24.006-54.789v-.007a.287.287 0 00.09-.215.165.165 0 00-.011-.057l.018-.007a43.026 43.026 0 01-.391-1.677.306.306 0 00-.29-.222.31.31 0 00-.179.057C46.327 35.883 34.748 56.643 34.748 80.115c0 29.271 18.004 54.334 43.533 64.773a.314.314 0 00.09.015"/><path fill="#EE8A00" d="M143.112 21.631l-.007.007a.23.23 0 00-.118-.025.317.317 0 00-.258.154l-.71 1.537a.27.27 0 00-.039.136c0 .097.047.172.122.233l-.003.014c16.932 11.525 26.529 34.449 26.529 56.427 0 24.472-11.891 49.009-32.141 59.764l.007.007a.314.314 0 00-.1.226c0 .043.011.082.025.122h-.003l.86 1.494h.007a.31.31 0 00.24.126c.054 0 .1-.014.14-.039 22.032-11.776 37.033-34.98 37.033-61.699-.002-24.464-12.566-45.98-31.584-58.484"/><path fill="#010101" d="M156.986 143.595h1.705v4.763h.778v-4.763h1.706v-.666h-4.189zM166.603 142.928l-1.806 4.724-1.806-4.724h-.871v5.43h.777v-3.896l1.488 3.896h.824l1.487-3.896v3.896h.778v-5.43z"/></svg>